# xmcd
#
# Track frame offsets: 
#        150
#        22628
#        38295
#        62481
#        80283
#        99259
#        118665
#        140927
#        163575
#
# Disc length: 2579 seconds
#
# Revision: 0
# Processed by: cddbd v1.5.2PL0 Copyright (c) Steve Scherf et al.
# Submitted via: ExactAudioCopyFreeDBPlugin 1.0
#
DISCID=600a1109
DTITLE=C-hicken工房 - My Secret “Cute”
DYEAR=2017
DGENRE=Game
TTITLE0=パステルピンクな恋
TTITLE1=To my darling...
TTITLE2=エヴリデイドリーム
TTITLE3=ショコラ・ティアラ
TTITLE4=き・ま・ぐ・れ Café au lait!
TTITLE5=キラッ！満開スマイル
TTITLE6=空と風と恋のワルツ
TTITLE7=S(mile)ING!
TTITLE8=Take me☆Take you
EXTD=
EXTT0=
EXTT1=
EXTT2=
EXTT3=
EXTT4=
EXTT5=
EXTT6=
EXTT7=
EXTT8=
PLAYORDER=
